<?xml version="1.0" standalone="no"?><!DOCTYPE svg PUBLIC "-//W3C//DTD SVG 1.1//EN" "http://www.w3.org/Graphics/SVG/1.1/DTD/svg11.dtd"><svg t="1667063268036" class="icon" viewBox="0 0 1024 1024" version="1.1" xmlns="http://www.w3.org/2000/svg" p-id="1825" xmlns:xlink="http://www.w3.org/1999/xlink" width="128" height="128"><path d="M949.929516 917.449265 706.64256 674.170496c58.372455-64.977897 94.188172-150.626579 94.188172-244.850567 0-202.65249-164.284647-366.92895-366.92895-366.92895-202.64328 0-366.92895 164.277484-366.92895 366.92895s164.28567 366.929973 366.92895 366.929973c89.548502 0 171.536818-32.16456 235.233536-85.454254l243.733117 243.715721c9.777691 9.784854 25.987884 9.402137 36.225039-0.827855C959.33063 943.445336 959.707207 927.226956 949.929516 917.449265zM119.390669 429.319929c0-173.695994 140.806933-314.511113 314.511113-314.511113 173.704181 0 314.51009 140.815119 314.51009 314.511113s-140.806933 314.511113-314.51009 314.511113C260.197602 743.831043 119.390669 603.0149 119.390669 429.319929z" p-id="1826" fill="#e0e0e0"></path></svg>